<?xml version="1.0" standalone="no"?>
<!DOCTYPE svg PUBLIC "-//W3C//DTD SVG 20010904//EN"
 "http://www.w3.org/TR/2001/REC-SVG-20010904/DTD/svg10.dtd">
<svg version="1.0" xmlns="http://www.w3.org/2000/svg"
 width="300.000000pt" height="300.000000pt" viewBox="0 0 300.000000 300.000000"
 preserveAspectRatio="xMidYMid meet">
<metadata>
Created by potrace 1.15, written by Peter Selinger 2001-2017
</metadata>
<g transform="translate(0.000000,300.000000) scale(0.100000,-0.100000)"
fill="#000000" stroke="none">
<path d="M896 2754 l-26 -27 0 -186 0 -187 28 -27 c37 -35 80 -36 121 -1 l31
26 0 186 c-1 196 -3 207 -47 230 -37 20 -78 14 -107 -14z"/>
<path d="M1249 2751 l-29 -29 0 -182 0 -182 29 -29 c48 -48 128 -31 150 32 17
48 14 322 -3 364 -26 63 -97 75 -147 26z"/>
<path d="M1603 2756 l-28 -24 -3 -172 c-4 -183 2 -218 42 -245 31 -23 81 -18
113 9 l28 24 0 192 0 192 -28 24 c-37 32 -87 32 -124 0z"/>
<path d="M1956 2754 c-14 -15 -26 -34 -26 -43 -3 -136 1 -351 6 -364 8 -23 55
-47 89 -47 16 0 38 12 56 29 l29 29 0 180 c0 180 0 181 -26 211 -35 41 -89 43
-128 5z"/>
<path d="M2276 2544 c-14 -14 -16 -84 -16 -625 l0 -609 -150 0 c-168 0 -194
-7 -266 -65 -73 -60 -88 -105 -94 -285 -4 -115 -8 -155 -17 -154 -7 1 -156 2
-332 3 -313 1 -319 1 -352 24 -18 12 -44 38 -56 56 -22 32 -23 44 -23 202 0
92 -4 179 -10 193 -14 38 -58 46 -83 15 -17 -22 -19 -38 -15 -199 3 -156 6
-180 26 -225 30 -65 75 -112 137 -141 50 -24 52 -24 420 -24 l370 0 273 269
272 269 0 640 c0 569 -2 642 -16 656 -8 9 -24 16 -34 16 -10 0 -26 -7 -34 -16z"/>
<path d="M2512 2548 c-9 -9 -12 -172 -12 -672 l0 -660 -220 -220 c-219 -218
-238 -244 -208 -274 32 -32 56 -13 287 219 l231 231 0 682 c0 517 -3 685 -12
694 -7 7 -21 12 -33 12 -12 0 -26 -5 -33 -12z"/>
<path d="M288 2402 c-93 -93 -98 -100 -98 -141 0 -39 5 -47 71 -112 l71 -70
140 138 139 138 -75 73 c-66 63 -80 72 -113 72 -33 0 -46 -9 -135 -98z"/>
<path d="M1105 1570 c-71 -71 -127 -131 -125 -134 16 -16 430 -196 450 -196
35 0 28 30 -39 167 -37 76 -85 173 -105 216 -21 42 -41 77 -44 77 -4 0 -66
-58 -137 -130z"/>
</g>
</svg>
